<?xml version="1.0" standalone="no"?>
<!DOCTYPE svg PUBLIC "-//W3C//DTD SVG 20010904//EN"
 "http://www.w3.org/TR/2001/REC-SVG-20010904/DTD/svg10.dtd">
<svg version="1.0" xmlns="http://www.w3.org/2000/svg"
 width="500.000000pt" height="500.000000pt" viewBox="0 0 500.000000 500.000000"
 preserveAspectRatio="xMidYMid meet">

<g transform="translate(0.000000,500.000000) scale(0.100000,-0.100000)"
fill="#000000" stroke="none">
<path d="M0 2500 l0 -2500 2500 0 2500 0 0 2500 0 2500 -2500 0 -2500 0 0
-2500z m2695 695 c175 -45 305 -169 356 -338 17 -55 21 -87 17 -171 -3 -98 -6
-108 -46 -189 -85 -173 -252 -277 -442 -277 -212 0 -398 133 -471 336 -30 84
-30 225 0 313 85 247 341 389 586 326z m-1007 -1314 c-3 -126 -6 -152 -25
-191 -12 -25 -32 -51 -44 -58 -17 -11 -20 -11 -14 0 5 7 -2 3 -14 -9 -36 -38
-152 -25 -151 16 1 13 3 13 15 -3 8 -11 18 -16 22 -12 11 10 -27 37 -40 29 -6
-4 -8 0 -4 11 5 12 0 19 -15 25 -17 6 -18 9 -5 14 9 3 18 0 21 -9 3 -7 18 -22
34 -31 34 -21 39 -32 20 -45 -8 -5 -2 -6 17 -2 36 8 58 25 24 18 -13 -2 -17
-1 -9 2 8 3 31 14 52 24 20 10 39 16 44 12 4 -4 4 -2 1 4 -4 7 0 28 8 48 11
25 15 74 15 174 l0 139 26 -5 26 -5 -4 -146z m346 -13 c21 -48 34 -93 30 -99
-5 -8 -3 -9 6 -4 10 6 12 4 7 -9 -4 -9 -3 -15 2 -12 11 7 62 -113 54 -127 -3
-6 -1 -7 5 -3 7 4 12 2 12 -3 0 -6 -11 -11 -25 -11 -21 0 -29 9 -45 45 l-20
46 -102 -3 -103 -3 -19 -42 c-16 -36 -24 -43 -47 -43 l-28 0 81 173 c44 94 89
192 100 217 l19 44 18 -39 c10 -22 35 -79 55 -127z m421 152 c-4 -6 1 -7 11
-3 28 10 80 -56 82 -105 1 -22 -4 -47 -11 -54 -8 -7 -14 -17 -14 -22 -2 -13
-55 -46 -75 -46 -20 0 -24 -15 -7 -25 6 -4 8 -13 5 -21 -3 -8 0 -13 6 -11 6 1
13 -4 16 -12 3 -9 0 -11 -8 -6 -9 5 -11 4 -6 -4 4 -6 11 -9 16 -6 4 3 16 -7
25 -21 9 -15 13 -24 8 -21 -5 4 -10 0 -10 -7 0 -7 7 -13 15 -12 8 1 21 -9 29
-21 15 -22 14 -23 -15 -23 -32 0 -58 22 -47 40 4 6 2 9 -4 8 -6 -2 -40 38 -76
87 l-65 90 63 6 c35 3 69 9 77 14 8 6 19 10 24 10 15 0 14 57 0 87 -11 21 -11
27 -1 31 6 2 1 5 -13 6 -14 0 -60 4 -102 7 l-78 6 0 -196 0 -196 -25 0 -25 0
0 215 0 215 106 0 c67 0 103 -4 99 -10z m211 -16 c2 -28 1 -28 -15 4 -9 17 -9
22 1 22 7 0 14 -12 14 -26z m354 16 c0 -5 -5 -10 -11 -10 -5 0 -7 5 -4 10 3 6
8 10 11 10 2 0 4 -4 4 -10z m-330 -85 c0 -5 -5 -3 -10 5 -5 8 -10 20 -10 25 0
6 5 3 10 -5 5 -8 10 -19 10 -25z m283 -20 c-3 -9 -8 -14 -10 -11 -3 3 -2 9 2
15 9 16 15 13 8 -4z m-1555 -261 c15 -33 8 -30 -18 6 -14 20 -16 28 -7 24 8
-3 19 -16 25 -30z m1747 -32 c-3 -3 -11 0 -18 7 -9 10 -8 11 6 5 10 -3 15 -9
12 -12z m8 -19 c-7 -2 -19 -2 -25 0 -7 3 -2 5 12 5 14 0 19 -2 13 -5z"/>
<path d="M2461 3144 c-80 -21 -145 -60 -206 -125 -255 -267 -108 -699 260
-762 83 -14 171 0 259 41 171 80 265 243 254 442 -5 79 -11 101 -41 164 -39
79 -109 153 -187 199 -93 54 -229 71 -339 41z m196 -277 c17 -9 35 -21 38 -27
9 -14 5 -13 -40 10 -50 26 -111 26 -153 0 -37 -23 -46 -25 -36 -9 12 20 87 47
123 45 20 -2 50 -10 68 -19z m-161 -288 c50 -31 157 -25 179 10 3 6 11 11 17
11 20 0 -24 -39 -56 -49 -65 -20 -116 -11 -171 33 -29 22 -8 20 31 -5z"/>
<path d="M1654 1875 c0 -49 1 -71 3 -48 2 23 2 64 0 90 -2 26 -3 8 -3 -42z"/>
<path d="M1941 1875 c-7 -21 -17 -33 -23 -29 -7 4 -8 2 -4 -4 4 -6 0 -24 -7
-39 -8 -15 -18 -38 -22 -51 -7 -23 -6 -23 67 -21 40 1 76 3 80 5 7 5 -63 173
-72 174 -4 0 -12 -16 -19 -35z"/>
<path d="M2520 1940 c0 -5 5 -10 10 -10 6 0 10 5 10 10 0 6 -4 10 -10 10 -5 0
-10 -4 -10 -10z"/>
<path d="M2456 1817 c3 -10 9 -15 12 -12 3 3 0 11 -7 18 -10 9 -11 8 -5 -6z"/>
</g>
</svg>
